HIERARCHY
ROOT Hips
{
     OFFSET 19.12770 94.12990 -19.48370
     CHANNELS 6 Xposition Yposition Zposition Zrotation Xrotation Yrotation
     JOINT Spine
     {
          OFFSET 0.00000 11.89050 0.00000
          CHANNELS 3 Zrotation Xrotation Yrotation
          JOINT Spine1
          {
               OFFSET -0.00000 25.65740 0.12766
               CHANNELS 3 Zrotation Xrotation Yrotation
               JOINT HEad
               {
                    OFFSET -0.00000 8.73416 0.01134
                    CHANNELS 3 Zrotation Xrotation Yrotation
                    End Site
                    {
                         OFFSET -0.29000 12.77420 2.51395
                    }
               }
               JOINT LeftShoulder1
               {
                    OFFSET 8.99000 -0.36225 -0.22000
                    CHANNELS 3 Zrotation Xrotation Yrotation
                    JOINT LeftArm
                    {
                         OFFSET 10.28270 -0.00338 0.32212
                         CHANNELS 3 Zrotation Xrotation Yrotation
                         JOINT LeftForeArm
                         {
                              OFFSET 32.76690 0.09914 -1.42434
                              CHANNELS 3 Zrotation Xrotation Yrotation
                              JOINT LeftHand
                              {
                                   OFFSET 27.56430 0.08536 1.02216
                                   CHANNELS 3 Zrotation Xrotation Yrotation
                                   End Site
                                   {
                                        OFFSET 16.74430 -0.60000 1.50291
                                   }
                              }
                         }
                    }
               }
               JOINT RightShoulder
               {
                    OFFSET -8.99000 -0.36225 -0.22000
                    CHANNELS 3 Zrotation Xrotation Yrotation
                    JOINT RightArm
                    {
                         OFFSET -10.28270 -0.00338 0.32212
                         CHANNELS 3 Zrotation Xrotation Yrotation
                         JOINT RightForeArm
                         {
                              OFFSET -32.89710 0.09914 -1.42434
                              CHANNELS 3 Zrotation Xrotation Yrotation
                              JOINT RightHand
                              {
                                   OFFSET -27.49210 0.08536 1.02216
                                   CHANNELS 3 Zrotation Xrotation Yrotation
                                   End Site
                                   {
                                        OFFSET -16.63120 -0.60000 1.50291
                                   }
                              }
                         }
                    }
               }
          }
     }
     JOINT LeftUpLeg
     {
          OFFSET 8.94580 -8.66707 0.10165
          CHANNELS 3 Zrotation Xrotation Yrotation
          JOINT LeftLeg
          {
               OFFSET 0.00000 -44.42270 1.37270
               CHANNELS 3 Zrotation Xrotation Yrotation
               JOINT LeftFoot
               {
                    OFFSET -0.25355 -42.09240 -1.46059
                    CHANNELS 3 Zrotation Xrotation Yrotation
                    JOINT LeftToes
                    {
                         OFFSET -0.04000 -4.41509 8.49910
                         CHANNELS 3 Zrotation Xrotation Yrotation
                         End Site
                         {
                              OFFSET 0.08000 -0.04745 9.77979
                         }
                    }
               }
          }
     }
     JOINT RightUpLeg
     {
          OFFSET -8.94580 -8.66707 0.10165
          CHANNELS 3 Zrotation Xrotation Yrotation
          JOINT RightLeg
          {
               OFFSET -0.00000 -44.42270 1.37270
               CHANNELS 3 Zrotation Xrotation Yrotation
               JOINT RightFoot
               {
                    OFFSET 0.25355 -42.09240 -1.46059
                    CHANNELS 3 Zrotation Xrotation Yrotation
                    JOINT RightToes
                    {
                         OFFSET 0.04000 -4.41509 8.49910
                         CHANNELS 3 Zrotation Xrotation Yrotation
                         End Site
                         {
                              OFFSET -0.08000 -0.13745 9.77979
                         }
                    }
               }
          }
     }
}
MOTION
Frames: 10
Frame Time: 0.01667
31.28420 93.64740 8.17414 5.04498 -16.15350 22.51590 2.87846 10.05550 5.49731 4.07473 20.88680 13.51240 -0.79780 1.86862 -38.86590 -0.00000 0.00000 -0.00000 -113.74400 -35.87020 -81.07280 -59.22750 56.81380 -67.49860 19.06580 6.43853 -17.07260 1.60831 1.02547 13.50910 96.93880 -10.48150 93.27410 58.84630 0.03786 72.92440 37.48000 15.10720 10.97840 -4.09502 -11.31150 -16.60780 -11.62960 15.95190 34.89080 -5.17696 30.22690 1.51568 3.31828 -24.98100 -80.00810 -32.68090 21.87450 23.26460 44.63560 17.16810 -28.79310 -22.50330 24.15220 6.35064 16.81560 -50.39930 33.45590 
31.45660 93.99970 8.68167 4.43050 -16.15710 20.57150 2.60613 10.19450 5.17180 3.43578 21.12130 12.85560 -1.27000 1.57386 -37.20780 -0.00000 0.00000 -0.00000 -112.28000 -36.04470 -79.65600 -57.80530 56.72600 -67.87970 19.34280 6.47431 -16.54400 5.42710 1.54882 13.59000 94.35350 -11.28160 87.22420 56.29000 0.11097 72.20110 36.10620 14.97260 11.17530 -2.92184 -10.85250 -16.34020 -12.22520 15.15230 35.93840 -4.99959 29.42840 1.42599 3.45239 -24.76470 -79.69420 -32.30390 21.00590 23.32290 44.18510 17.61620 -29.51800 -23.33200 23.64670 6.48074 16.09440 -48.40470 34.28180 
31.72100 94.36580 9.11221 3.46811 -16.06870 17.95630 2.46553 10.39680 4.80885 2.96253 21.49210 12.14030 -2.05137 0.64957 -35.02420 -0.00000 0.00000 -0.00000 -111.33600 -36.53730 -78.66770 -56.57570 56.56140 -68.34730 19.63840 6.50521 -16.03850 9.37075 2.08274 13.55190 91.56510 -12.11050 81.08450 53.68860 0.60482 71.53190 34.46290 14.94440 11.84980 -1.50353 -10.48820 -16.16550 -12.83860 14.17970 37.34840 -4.58742 28.29350 1.25279 3.63046 -24.48530 -79.02370 -32.02450 19.79720 22.88460 43.89100 18.18360 -30.33550 -24.05410 23.18230 6.58323 14.57800 -46.06970 33.36250 
32.03810 94.69610 9.43457 2.18231 -15.78090 14.92980 2.43018 10.60710 4.36032 2.69176 21.87470 11.24800 -2.77630 -0.77238 -32.42350 -0.00000 0.00000 -0.00000 -111.02400 -37.42160 -78.22980 -55.37000 56.61240 -69.13030 19.78710 6.59147 -15.37880 13.15540 2.54372 13.18780 88.64020 -12.81500 75.29160 51.24980 1.61677 70.89270 32.78210 14.94830 12.71380 0.14422 -10.41250 -16.20450 -13.52490 13.18870 39.10380 -4.03931 26.99520 1.04196 3.79030 -24.24440 -78.04220 -31.77530 18.27010 21.99240 43.85090 18.80710 -31.23490 -24.60630 22.85020 6.66307 12.50670 -43.50820 30.70920 
32.36010 94.95470 9.63463 0.65434 -15.28760 11.61040 2.44824 10.82750 3.80354 2.58181 22.25700 10.11700 -3.19302 -2.53884 -29.36710 -0.00000 0.00000 -0.00000 -111.36200 -38.82000 -78.48170 -54.28590 57.00510 -70.16780 19.69790 6.73797 -14.61410 16.44780 2.86735 12.55200 85.69020 -13.27830 70.17180 48.96660 3.22720 70.33590 31.29410 14.91730 13.42910 2.07520 -10.65410 -16.41840 -14.36860 12.26460 41.24150 -3.34389 25.73070 0.80196 3.79661 -24.28510 -76.93820 -31.49610 16.43420 20.80640 44.07830 19.51040 -32.26110 -25.17900 22.76730 6.80321 10.59040 -41.24710 27.41400 
32.65240 95.13040 9.71602 -1.03704 -14.64700 8.03009 2.45758 11.08490 3.14597 2.55093 22.67890 8.75756 -3.14803 -4.49346 -25.76320 -0.00000 0.00000 -0.00000 -112.24700 -40.75390 -79.54590 -53.61700 57.63500 -71.12920 19.38740 6.90532 -13.93090 18.95070 3.04382 11.84970 82.94970 -13.40430 66.00250 46.62230 5.45501 69.99010 30.10380 14.82870 13.81530 4.34538 -11.11630 -16.64360 -15.40070 11.47390 43.71150 -2.55917 24.61430 0.55518 3.58714 -24.73540 -75.92450 -31.12870 14.34820 19.48330 44.52040 20.32730 -33.43580 -25.92460 22.79260 7.01657 9.17353 -39.47970 24.57010 
32.90730 95.22590 9.69382 -2.80357 -13.93200 4.28182 2.40147 11.38390 2.40510 2.52437 23.14790 7.20415 -2.57278 -6.38243 -21.60210 -0.00000 0.00000 -0.00000 -113.50000 -43.10810 -81.45750 -53.62130 58.33320 -71.61380 19.01940 7.04214 -13.46370 20.58200 3.10691 11.23470 80.61530 -13.16360 62.93670 44.07280 8.19516 70.01180 29.20830 14.69170 13.85930 6.90747 -11.65810 -16.75170 -16.58750 10.88200 46.37290 -1.84316 23.65150 0.34419 3.22878 -25.47480 -75.16360 -30.67450 12.20000 18.10220 45.09730 21.21200 -34.72690 -26.75580 22.60940 7.20360 8.13152 -37.88290 22.53710 
33.13830 95.24590 9.58419 -4.54316 -13.20690 0.52313 2.24013 11.69360 1.61615 2.44373 23.61460 5.53041 -1.50576 -7.87397 -17.03470 -0.00000 0.00000 -0.00000 -114.95000 -45.67880 -84.13790 -54.41990 58.99680 -71.28140 18.79100 7.11462 -13.24030 21.49120 3.08856 10.69840 78.75500 -12.59250 60.97760 41.47140 11.20990 70.50790 28.56280 14.53030 13.65030 9.59766 -12.17000 -16.66410 -17.85020 10.55770 49.01120 -1.35895 22.78720 0.20717 2.85580 -26.23480 -74.71540 -30.22010 10.24770 16.70310 45.71530 22.04030 -36.09040 -27.48830 22.04870 7.26601 7.28884 -36.20760 21.17740 
33.35870 95.19760 9.40301 -6.17419 -12.51150 -3.15170 1.95796 11.96760 0.85340 2.26385 24.00540 3.89650 -0.12838 -8.68466 -12.37190 -0.00000 0.00000 -0.00000 -116.47800 -48.23060 -87.41560 -55.97730 59.54760 -69.96290 18.73570 7.12235 -13.24630 21.90620 2.99591 10.11650 77.41280 -11.78390 60.04770 39.09100 14.26330 71.47690 28.03970 14.36510 13.33770 12.23150 -12.60450 -16.22880 -19.07930 10.58980 51.37590 -1.14916 21.99660 0.14843 2.53369 -26.87630 -74.54700 -29.87820 8.65358 15.37880 46.27530 22.69740 -37.49690 -28.05360 21.21010 7.20513 6.59592 -34.54050 20.28680 
33.57060 95.09010 9.17520 -7.64492 -11.85880 -6.73348 1.56715 12.17310 0.20204 1.96768 24.27240 2.49056 1.26335 -8.71207 -7.99336 -0.00000 0.00000 -0.00000 -117.94500 -50.53700 -91.02090 -57.96680 59.87830 -67.88000 18.72680 7.09113 -13.44880 21.98980 2.82452 9.37043 76.68870 -10.87980 60.04560 36.98940 17.25290 72.87910 27.43710 14.19490 13.04330 14.68090 -12.94760 -15.30120 -20.18230 11.03540 53.32990 -1.07849 21.31330 0.12789 2.19161 -27.53270 -74.58690 -29.73100 7.44323 14.27190 46.68400 23.13710 -38.87200 -28.53400 20.35270 7.10925 6.10005 -33.17010 19.81010 
